<svg xmlns="http://www.w3.org/2000/svg" width="1200" height="620" viewBox="0 0 1200 620" role="img" aria-labelledby="t d"><title id="t">Final merged history</title><desc id="d">Master points to merge commit 56ab3, develop stays at 43ef8, and impfix stays at 28bd1.</desc><defs><linearGradient id="b" x2="1" y2="1"><stop stop-color="#07131e"/><stop offset="1" stop-color="#111827"/></linearGradient></defs><rect width="1200" height="620" rx="30" fill="url(#b)"/><text x="60" y="70" fill="#f8fafc" font-family="Inter,Segoe UI,sans-serif" font-size="40" font-weight="700">7. Final merged history</text><text x="60" y="110" fill="#94a3b8" font-family="Inter,Segoe UI,sans-serif" font-size="22">The branch pointers remain independent after the merge.</text><g stroke="#64748b" stroke-width="5"><path d="M280 350H450M510 350H680"/><path d="M740 330L890 220M740 370L870 455M970 455L1080 355M990 220L1080 315"/></g><g font-family="ui-monospace,Consolas,monospace" font-size="22" text-anchor="middle" fill="#e2e8f0"><rect x="130" y="310" width="150" height="80" rx="17" fill="#1e293b"/><text x="205" y="359">98ca9</text><rect x="360" y="310" width="150" height="80" rx="17" fill="#1e293b"/><text x="435" y="359">34ac2</text><rect x="590" y="310" width="150" height="80" rx="17" fill="#134e4a"/><text x="665" y="359">f30ab</text><rect x="840" y="170" width="150" height="80" rx="17" fill="#78350f"/><text x="915" y="219">28bd1</text><rect x="820" y="415" width="150" height="80" rx="17" fill="#4c1d95"/><text x="895" y="464">43ef8</text><rect x="1030" y="295" width="150" height="80" rx="17" fill="#78350f" stroke="#fbbf24" stroke-width="4"/><text x="1105" y="344">56ab3</text></g><g font-family="Inter,Segoe UI,sans-serif" font-size="19" font-weight="700" text-anchor="middle"><rect x="1035" y="405" width="140" height="48" rx="14" fill="#0284c7"/><text x="1105" y="437" fill="white">master</text><rect x="820" y="515" width="150" height="48" rx="14" fill="#7c3aed"/><text x="895" y="547" fill="white">develop</text><rect x="840" y="100" width="150" height="48" rx="14" fill="#d97706"/><text x="915" y="132" fill="white">impfix</text></g><circle cx="1105" cy="335" r="58" fill="none" stroke="#fbbf24" stroke-width="4"><animate attributeName="opacity" values=".2;1;.2" dur="2.5s" repeatCount="indefinite"/></circle></svg>
